# ProBuilder 4.2.3
# https://unity3d.com/unity/features/worldbuilding/probuilder
# 6/25/2020 1:25:56 PM

mtllib ./BigRoom.mtl
o BigRoom

g GroundFloor
v 76.4 0 -9.49
v 76.4 0 7.053743
v 48.77716 0 -9.49
v 48.77716 0 7.053743
v 76.4 0 23.31215
v 48.77716 0 23.31215
v 21.62984 0 -9.49
v 21.62984 0 7.053743
v 21.62984 0 23.31215
v 48.77716 10.92785 -9.49
v 76.4 10.92785 -9.49
v 21.62984 10.92785 -9.49
v 21.62984 10.92785 7.053743
v 21.62984 10.92785 23.31215
v 48.77716 10.92785 23.31215
v 76.4 10.92785 23.31215
v 76.4 10.92785 7.053743

vt 0 0
vt 0 16.54374
vt 27.62284 0
vt 27.62284 16.54374
vt 0 32.80215
vt 27.62284 32.80215
vt 54.77016 0
vt 54.77016 16.54374
vt 54.77016 32.80215
vt -27.62284 0
vt -27.62284 10.92785
vt 0 10.92785
vt -54.77016 0
vt -54.77016 10.92785
vt -16.54374 0
vt -16.54374 10.92785
vt -32.80215 0
vt -32.80215 10.92785
vt 27.62284 10.92785
vt 54.77016 10.92785
vt 16.54374 0
vt 32.80215 0
vt 16.54374 10.92785
vt 32.80215 10.92785

vn 0 1 0
vn 0 0 1
vn 1 0 0
vn 0 0 -1
vn -1 0 0

usemtl mobile_cube
f 3/3/1 4/4/1 2/2/1 1/1/1
f 4/4/1 6/6/1 5/5/1 2/2/1
f 7/7/1 8/8/1 4/4/1 3/3/1
f 8/8/1 9/9/1 6/6/1 4/4/1
f 11/12/2 10/11/2 3/10/2 1/1/2
f 10/11/2 12/14/2 7/13/2 3/10/2
f 12/12/3 13/16/3 8/15/3 7/1/3
f 13/16/3 14/18/3 9/17/3 8/15/3
f 14/20/4 15/19/4 6/3/4 9/7/4
f 15/19/4 16/12/4 5/1/4 6/3/4
f 16/24/5 17/23/5 2/21/5 5/22/5
f 17/23/5 11/12/5 1/1/5 2/21/5

